<?xml version="1.0" standalone="yes"?>
<svg xmlns="http://www.w3.org/2000/svg" width="240" height="240">
<path style="fill:#f93a4a; stroke:none;" d="M0 0L0 240L240 240L240 0L0 0z"/>
<path style="fill:#f6202b; stroke:none;" d="M101 73C105.72 74.9805 111.92 74 117 74L148 74C143.28 72.0194 137.08 73 132 73L101 73z"/>
<path style="fill:#ff8590; stroke:none;" d="M100 74C104.72 75.9806 110.92 75 116 75L149 75C144.28 73.0194 138.08 74 133 74L100 74z"/>
<path style="fill:#ff1839; stroke:none;" d="M152 74C153.506 74.683 154.315 74.8259 156 75C154.494 74.317 153.685 74.1741 152 74z"/>
<path style="fill:#f4aeb0; stroke:none;" d="M98 75L99 76L98 75z"/>
<path style="fill:#ffffff; stroke:none;" d="M86 165L123 165C133.207 165 143.772 165.198 153 160.095C168.55 151.496 172.869 128.176 157 118C170.611 112.013 179.144 90.3024 164.907 79.8503C158.736 75.3203 150.343 75.0028 143 75L114 75C108.909 75 101.518 73.6744 97.1088 76.7423C91.1009 80.9225 92.7113 88.4933 100.004 88.956C114.287 89.8623 128.712 88.2179 143 89.0432C147.748 89.3175 154.148 92.0569 152.214 97.9969C149.425 106.56 138.975 105 132 105L87 105C81.2634 105 73.5105 103.648 69.7431 109.109C64.0526 117.358 73.8928 119.99 80 120C93.3326 120.022 106.668 119.909 120 120.001C124.338 120.031 131.112 121.002 130.534 127C130.143 131.056 125.559 134.231 122 135.347C113.805 137.918 104.011 133.589 96.0154 136.742C87.2837 140.186 87.0257 157.058 86 165z"/>
<path style="fill:#f8d9d6; stroke:none;" d="M152 75C153.248 75.6848 153.548 75.7488 155 76C153.752 75.3152 153.452 75.2512 152 75z"/>
<path style="fill:#ff1d3e; stroke:none;" d="M157 75C158.458 76.0811 159.248 76.4361 161 77C159.457 75.7333 158.952 75.5108 157 75z"/>
<path style="fill:#ff7b9d; stroke:none;" d="M96 76L97 77L96 76z"/>
<path style="fill:#fa8e91; stroke:none;" d="M158 76L159 77L158 76z"/>
<path style="fill:#fd959b; stroke:none;" d="M95 77L96 78L95 77z"/>
<path style="fill:#ded4bc; stroke:none;" d="M160 77L161 78L160 77z"/>
<path style="fill:#ff2443; stroke:none;" d="M162 77C164.122 79.3699 166.072 80.7582 169 82C166.911 79.3485 165.199 78.0861 162 77z"/>
<path style="fill:#fca49f; stroke:none;" d="M164 79L165 80L164 79z"/>
<path style="fill:#ed9090; stroke:none;" d="M93 80L94 81L93 80z"/>
<path style="fill:#f9b4aa; stroke:none;" d="M168 83L169 84L168 83z"/>
<path style="fill:#ff7389; stroke:none;" d="M169 84L170 85L169 84z"/>
<path style="fill:#ff6f8a; stroke:none;" d="M93 86L94 87L93 86z"/>
<path style="fill:#fa7f8d; stroke:none;" d="M170 86L171 87L170 86z"/>
<path style="fill:#ffa3a2; stroke:none;" d="M95 88L96 89L95 88z"/>
<path style="fill:#ff7f9f; stroke:none;" d="M171.333 88.6667C171.278 88.7222 171.222 89.7778 171.667 89.3333C171.722 89.2778 171.778 88.2223 171.333 88.6667z"/>
<path style="fill:#ff8999; stroke:none;" d="M96.6667 89.3333C96.2222 89.7778 97.2778 89.7222 97.3333 89.6667C97.7778 89.2222 96.7222 89.2778 96.6667 89.3333z"/>
<path style="fill:#ffd7dc; stroke:none;" d="M98 89C102.72 90.9806 108.92 90 114 90L148 90C143.28 88.0194 137.08 89 132 89L98 89z"/>
<path style="fill:#fa1a30; stroke:none;" d="M96 90C100.72 91.9805 106.92 91 112 91L146 91C141.28 89.0194 135.08 90 130 90L96 90z"/>
<path style="fill:#f17285; stroke:none;" d="M149 90L150 91L149 90z"/>
<path style="fill:#ffc3c1; stroke:none;" d="M151 91L152 92L151 91z"/>
<path style="fill:#ed8996; stroke:none;" d="M152 93L153 94L152 93z"/>
<path style="fill:#f45360; stroke:none;" d="M172 93L172 98C172.83 95.9695 172.83 95.0305 172 93z"/>
<path style="fill:#ff3757; stroke:none;" d="M104 94C108.215 95.7687 113.464 95 118 95L144 95C139.785 93.2313 134.536 94 130 94L104 94z"/>
<path style="fill:#ed7f91; stroke:none;" d="M152 98L153 99L152 98z"/>
<path style="fill:#fd91a8; stroke:none;" d="M171.333 100.667C171.278 100.722 171.222 101.778 171.667 101.333C171.722 101.278 171.778 100.222 171.333 100.667z"/>
<path style="fill:#f63666; stroke:none;" d="M171.333 102.667C171.278 102.722 171.222 103.778 171.667 103.333C171.722 103.278 171.778 102.222 171.333 102.667z"/>
<path style="fill:#f82d40; stroke:none;" d="M73 104C79.3595 105.956 89.164 104 96 104L148 104C141.806 101.401 132.686 103 126 103L93 103C86.3415 103 79.5129 102.449 73 104z"/>
<path style="fill:#ff8a96; stroke:none;" d="M148 103L149 104L148 103z"/>
<path style="fill:#f84d58; stroke:none;" d="M76 104C82.194 106.599 91.3141 105 98 105L146 105C139.806 102.401 130.686 104 124 104L76 104z"/>
<path style="fill:#f4a5b1; stroke:none;" d="M146 104L147 105L146 104z"/>
<path style="fill:#e4c7b2; stroke:none;" d="M170 104L171 105L170 104z"/>
<path style="fill:#ff7b91; stroke:none;" d="M73 105L74 106L73 105z"/>
<path style="fill:#ff687d; stroke:none;" d="M170 105L171 106L170 105z"/>
<path style="fill:#f47e8c; stroke:none;" d="M70 107L71 108L70 107z"/>
<path style="fill:#fa6981; stroke:none;" d="M169 107L170 108L169 107z"/>
<path style="fill:#ffc6bc; stroke:none;" d="M168 108L169 109L168 108z"/>
<path style="fill:#ff8e9c; stroke:none;" d="M68 110L69 111L68 110z"/>
<path style="fill:#fe969c; stroke:none;" d="M167 110L168 111L167 110z"/>
<path style="fill:#ffbbc0; stroke:none;" d="M166 111L167 112L166 111z"/>
<path style="fill:#eeb0ba; stroke:none;" d="M165 112L166 113L165 112z"/>
<path style="fill:#ff4565; stroke:none;" d="M67.3333 113.667C67.2778 113.722 67.2222 114.778 67.6667 114.333C67.7222 114.278 67.7778 113.222 67.3333 113.667z"/>
<path style="fill:#ffb3b6; stroke:none;" d="M164 113L165 114L164 113z"/>
<path style="fill:#ff8a92; stroke:none;" d="M163 114L164 115L163 114z"/>
<path style="fill:#fd5b68; stroke:none;" d="M162 115L163 116L162 115z"/>
<path style="fill:#ffadb5; stroke:none;" d="M68 116L69 117L68 116z"/>
<path style="fill:#fda2a7; stroke:none;" d="M160 116L161 117L160 116z"/>
<path style="fill:#f4beb1; stroke:none;" d="M158 117L159 118L158 117z"/>
<path style="fill:#f20c2c; stroke:none;" d="M158 119C159.58 118.316 159.777 118.195 161 117C159.42 117.684 159.223 117.805 158 119z"/>
<path style="fill:#ff6e8f; stroke:none;" d="M157 118L158 119L157 118z"/>
<path style="fill:#f3a1a0; stroke:none;" d="M71 119L72 120L71 119z"/>
<path style="fill:#f67f86; stroke:none;" d="M159 119L160 120L159 119z"/>
<path style="fill:#ffa59f; stroke:none;" d="M126.667 120.333C126.222 120.778 127.278 120.722 127.333 120.667C127.778 120.222 126.722 120.278 126.667 120.333z"/>
<path style="fill:#f95877; stroke:none;" d="M129 122L130 123L129 122z"/>
<path style="fill:#ffacb4; stroke:none;" d="M130 123L131 124L130 123z"/>
<path style="fill:#ffb3b4; stroke:none;" d="M164 124L165 125L164 124z"/>
<path style="fill:#ff5c71; stroke:none;" d="M165 125L166 126L165 125z"/>
<path style="fill:#ffbcbf; stroke:none;" d="M165 126L166 127L165 126z"/>
<path style="fill:#ff182c; stroke:none;" d="M167.333 127.667C167.278 127.722 167.222 128.778 167.667 128.333C167.722 128.278 167.778 127.222 167.333 127.667z"/>
<path style="fill:#ff6c8c; stroke:none;" d="M130 128L131 129L130 128z"/>
<path style="fill:#fde0d9; stroke:none;" d="M166.333 128.667C166.278 128.722 166.222 129.778 166.667 129.333C166.722 129.278 166.778 128.222 166.333 128.667z"/>
<path style="fill:#ffcacc; stroke:none;" d="M130 129L131 130L130 129z"/>
<path style="fill:#fca3ac; stroke:none;" d="M167.333 131.667C167.278 131.722 167.222 132.778 167.667 132.333C167.722 132.278 167.778 131.222 167.333 131.667z"/>
<path style="fill:#f51d31; stroke:none;" d="M168 131L168 140C169.256 137.006 169.256 133.994 168 131z"/>
<path style="fill:#f72934; stroke:none;" d="M96 134C103.649 137.21 115.712 135 124 135C120.816 133.019 117.652 133.902 114 133.985C108.012 134.122 101.946 133.365 96 134z"/>
<path style="fill:#ed0931; stroke:none;" d="M124.667 133.333C124.222 133.778 125.278 133.722 125.333 133.667C125.778 133.222 124.722 133.278 124.667 133.333z"/>
<path style="fill:#ffd0d8; stroke:none;" d="M167 133L167 139C167.951 136.715 167.951 135.285 167 133z"/>
<path style="fill:#ff6682; stroke:none;" d="M124 134L125 135L124 134z"/>
<path style="fill:#ff8699; stroke:none;" d="M97 135L98 136L97 135z"/>
<path style="fill:#ffeff4; stroke:none;" d="M98 135C104.928 137.907 115.503 136 123 136C116.072 133.093 105.497 135 98 135z"/>
<path style="fill:#f9c3c8; stroke:none;" d="M95 136L96 137L95 136z"/>
<path style="fill:#e9787e; stroke:none;" d="M93 137L94 138L93 137z"/>
<path style="fill:#f99ba6; stroke:none;" d="M92 138L93 139L92 138z"/>
<path style="fill:#f87a84; stroke:none;" d="M91 139L92 140L91 139z"/>
<path style="fill:#fbb7b1; stroke:none;" d="M90 141L91 142L90 141z"/>
<path style="fill:#ff2435; stroke:none;" d="M167 141L165 149C167.037 146.439 168.098 144.168 167 141z"/>
<path style="fill:#e4818d; stroke:none;" d="M166.333 142.667C166.278 142.722 166.222 143.778 166.667 143.333C166.722 143.278 166.778 142.222 166.333 142.667z"/>
<path style="fill:#ef1a27; stroke:none;" d="M88 143L88 146C88.6961 144.446 88.6961 144.554 88 143z"/>
<path style="fill:#ee8081; stroke:none;" d="M89 143L90 144L89 143z"/>
<path style="fill:#ffd3dc; stroke:none;" d="M89.3333 144.667C89.2778 144.722 89.2222 145.778 89.6667 145.333C89.7222 145.278 89.7778 144.222 89.3333 144.667z"/>
<path style="fill:#f2bdc4; stroke:none;" d="M165 145L166 146L165 145z"/>
<path style="fill:#f12134; stroke:none;" d="M87 148L87 152C87.7102 150.241 87.7102 149.759 87 148z"/>
<path style="fill:#fb99a2; stroke:none;" d="M88.3333 148.667C88.2778 148.722 88.2222 149.778 88.6667 149.333C88.7222 149.278 88.7778 148.222 88.3333 148.667z"/>
<path style="fill:#ff6171; stroke:none;" d="M164 148L165 149L164 148z"/>
<path style="fill:#fcc5c4; stroke:none;" d="M163 149L164 150L163 149z"/>
<path style="fill:#f99aa7; stroke:none;" d="M162 151L163 152L162 151z"/>
<path style="fill:#f6142b; stroke:none;" d="M86 152L86 157C86.8299 154.97 86.8299 154.03 86 152z"/>
<path style="fill:#fc576d; stroke:none;" d="M87 152L87 155C87.6961 153.446 87.6961 153.554 87 152z"/>
<path style="fill:#fcdbdd; stroke:none;" d="M87.3333 155.667C87.2778 155.722 87.2222 156.778 87.6667 156.333C87.7222 156.278 87.7778 155.222 87.3333 155.667z"/>
<path style="fill:#ff636e; stroke:none;" d="M86.3333 158.667C86.2778 158.722 86.2222 159.778 86.6667 159.333C86.7222 159.278 86.7778 158.222 86.3333 158.667z"/>
<path style="fill:#ef9da4; stroke:none;" d="M155 158L156 159L155 158z"/>
<path style="fill:#e35b63; stroke:none;" d="M154 159L155 160L154 159z"/>
<path style="fill:#f9cdc8; stroke:none;" d="M86.3333 160.667C86.2778 160.722 86.2222 161.778 86.6667 161.333C86.7222 161.278 86.7778 160.222 86.3333 160.667z"/>
<path style="fill:#fc8186; stroke:none;" d="M150 161L151 162L150 161z"/>
<path style="fill:#ffafb0; stroke:none;" d="M147 162L148 163L147 162z"/>
<path style="fill:#fc1d34; stroke:none;" d="M146 163C147.943 163.622 148.949 163.436 151 163C149.057 162.378 148.051 162.564 146 163z"/>
<path style="fill:#ec6371; stroke:none;" d="M144.667 163.333C144.222 163.778 145.278 163.722 145.333 163.667C145.778 163.222 144.722 163.278 144.667 163.333z"/>
<path style="fill:#fe5563; stroke:none;" d="M85.3333 164.667C85.2778 164.722 85.2222 165.778 85.6667 165.333C85.7222 165.278 85.7778 164.222 85.3333 164.667z"/>
<path style="fill:#feabb4; stroke:none;" d="M138 164C139.248 164.685 139.548 164.749 141 165C139.752 164.315 139.452 164.251 138 164z"/>
<path style="fill:#ff142d; stroke:none;" d="M143 164C144.248 164.685 144.548 164.749 146 165C144.752 164.315 144.452 164.251 143 164z"/>
<path style="fill:#ff8590; stroke:none;" d="M86 165C90.4687 166.875 96.1913 166 101 166L131 166C126.531 164.125 120.809 165 116 165L86 165z"/>
<path style="fill:#f3526a; stroke:none;" d="M131 165C132.769 165.779 134.036 165.912 136 166C134.231 165.221 132.964 165.088 131 165z"/>
<path style="fill:#f6202b; stroke:none;" d="M87 166C91.969 168.085 98.6497 167 104 167C116.744 167 129.32 167.001 142 166C137.371 164.112 131.016 165.998 126 166L87 166z"/>
</svg>
