<?xml version="1.0" standalone="no"?>
<!DOCTYPE svg PUBLIC "-//W3C//DTD SVG 20010904//EN"
 "http://www.w3.org/TR/2001/REC-SVG-20010904/DTD/svg10.dtd">
<svg version="1.0" xmlns="http://www.w3.org/2000/svg"
 width="240.000000pt" height="240.000000pt" viewBox="0 0 240.000000 240.000000"
 preserveAspectRatio="xMidYMid meet">
<metadata>
Created by potrace 1.16, written by Peter Selinger 2001-2019
</metadata>
<g transform="translate(0.000000,240.000000) scale(0.100000,-0.100000)"
fill="#000000" stroke="none">
<path d="M0 1200 l0 -1200 1200 0 1200 0 0 1200 0 1200 -1200 0 -1200 0 0
-1200z m1590 436 c50 -19 94 -57 117 -100 19 -36 19 -143 0 -188 -19 -44 -63
-95 -98 -114 l-29 -14 39 -35 c116 -105 54 -323 -114 -401 -27 -13 -79 -28
-115 -33 -74 -12 -527 -15 -533 -3 -6 11 37 223 51 248 25 46 53 54 192 54
147 0 179 10 199 59 14 33 4 64 -29 81 -11 6 -123 10 -286 10 -235 0 -270 2
-286 17 -27 24 -24 78 7 108 l24 25 357 0 c387 0 408 3 433 56 16 35 14 51 -9
74 -19 19 -33 20 -282 20 -289 0 -298 2 -298 62 0 39 15 64 48 83 42 23 547
16 612 -9z"/>
</g>
</svg>
