<?xml version="1.0" encoding="UTF-8" standalone="no"?>
<svg
   xmlns:dc="http://purl.org/dc/elements/1.1/"
   xmlns:cc="http://creativecommons.org/ns#"
   xmlns:rdf="http://www.w3.org/1999/02/22-rdf-syntax-ns#"
   xmlns:svg="http://www.w3.org/2000/svg"
   xmlns="http://www.w3.org/2000/svg"
   xmlns:sodipodi="http://sodipodi.sourceforge.net/DTD/sodipodi-0.dtd"
   xmlns:inkscape="http://www.inkscape.org/namespaces/inkscape"
   version="1.0"
   width="103.92827"
   height="90"
   viewBox="0 0 1039.2827 900"
   preserveAspectRatio="xMidYMid meet"
   id="svg8"
   sodipodi:docname="5.svg"
   inkscape:version="0.92.2 (5c3e80d, 2017-08-06)">
  <metadata
     id="metadata14">
    <rdf:RDF>
      <cc:Work
         rdf:about="">
        <dc:format>image/svg+xml</dc:format>
        <dc:type
           rdf:resource="http://purl.org/dc/dcmitype/StillImage" />
      </cc:Work>
    </rdf:RDF>
  </metadata>
  <defs
     id="defs12" />
  <sodipodi:namedview
     pagecolor="#ffffff"
     bordercolor="#666666"
     borderopacity="1"
     objecttolerance="10"
     gridtolerance="10"
     guidetolerance="10"
     inkscape:pageopacity="0"
     inkscape:pageshadow="2"
     inkscape:window-width="1083"
     inkscape:window-height="804"
     id="namedview10"
     showgrid="false"
     inkscape:zoom="0.98333333"
     inkscape:cx="51.988883"
     inkscape:cy="45"
     inkscape:window-x="0"
     inkscape:window-y="0"
     inkscape:window-maximized="0"
     inkscape:current-layer="svg8" />
  <g
     id="layer102"
     style="fill:#fffbfb;stroke:none"
     transform="translate(-680.11117,-750)">
    <path
       d="m 860,1642 c 0,-5 9,-57 20,-117 17,-95 24,-114 50,-140 l 30,-30 151,-5 c 150,-5 151,-5 175,-33 29,-34 31,-70 4,-97 -19,-19 -33,-20 -293,-20 -230,0 -276,-2 -295,-16 -30,-20 -29,-65 2,-101 l 24,-28 377,-5 377,-5 24,-28 c 28,-33 31,-77 6,-100 -15,-14 -56,-16 -286,-19 -252,-3 -268,-4 -282,-22 -21,-29 -17,-61 12,-95 l 26,-31 h 278 c 299,0 329,4 396,55 100,76 78,274 -40,352 l -43,29 28,16 c 124,72 88,298 -62,391 -82,50 -129,57 -416,57 -145,0 -263,-4 -263,-8 z"
       id="path5"
       inkscape:connector-curvature="0" />
  </g>
</svg>
