<?xml version="1.0" encoding="UTF-8" standalone="no"?>
<!-- Generator: Adobe Illustrator 22.1.0, SVG Export Plug-In . SVG Version: 6.00 Build 0)  -->

<svg
   xmlns:dc="http://purl.org/dc/elements/1.1/"
   xmlns:cc="http://creativecommons.org/ns#"
   xmlns:rdf="http://www.w3.org/1999/02/22-rdf-syntax-ns#"
   xmlns:svg="http://www.w3.org/2000/svg"
   xmlns="http://www.w3.org/2000/svg"
   xmlns:sodipodi="http://sodipodi.sourceforge.net/DTD/sodipodi-0.dtd"
   xmlns:inkscape="http://www.inkscape.org/namespaces/inkscape"
   version="1.1"
   id="Layer_1"
   x="0px"
   y="0px"
   viewBox="0 0 58.452496 38.900002"
   xml:space="preserve"
   sodipodi:docname="fb logo.svg"
   width="58.452496"
   height="38.900002"
   inkscape:version="0.92.2 (5c3e80d, 2017-08-06)"><metadata
     id="metadata171"><rdf:RDF><cc:Work
         rdf:about=""><dc:format>image/svg+xml</dc:format><dc:type
           rdf:resource="http://purl.org/dc/dcmitype/StillImage" /></cc:Work></rdf:RDF></metadata><defs
     id="defs169" /><sodipodi:namedview
     pagecolor="#ffffff"
     bordercolor="#666666"
     borderopacity="1"
     objecttolerance="10"
     gridtolerance="10"
     guidetolerance="10"
     inkscape:pageopacity="0"
     inkscape:pageshadow="2"
     inkscape:window-width="1920"
     inkscape:window-height="1017"
     id="namedview167"
     showgrid="false"
     inkscape:zoom="1.0925926"
     inkscape:cx="26.3"
     inkscape:cy="1.3"
     inkscape:window-x="-8"
     inkscape:window-y="-8"
     inkscape:window-maximized="1"
     inkscape:current-layer="Layer_1" /><style
     type="text/css"
     id="style2">
	.st0{fill:#262261;}
	.st1{fill:url(#SVGID_1_);}
	.st2{fill:url(#SVGID_2_);}
	.st3{fill:url(#SVGID_3_);}
	.st4{fill:url(#SVGID_4_);}
	.st5{fill:url(#SVGID_5_);}
	.st6{fill:url(#SVGID_6_);}
	.st7{fill:url(#SVGID_7_);}
	.st8{fill:url(#SVGID_8_);}
	.st9{fill:url(#SVGID_9_);}
	.st10{fill:url(#SVGID_10_);}
	.st11{fill:url(#SVGID_11_);}
	.st12{fill:url(#SVGID_12_);}
	.st13{fill:url(#SVGID_13_);}
	.st14{fill:url(#SVGID_14_);}
	.st15{fill:url(#SVGID_15_);}
	.st16{fill:url(#SVGID_16_);}
	.st17{fill:url(#SVGID_17_);}
	.st18{fill:url(#SVGID_18_);}
	.st19{fill:url(#SVGID_19_);}
	.st20{fill:url(#SVGID_20_);}
	.st21{fill:url(#SVGID_21_);}
	.st22{fill:url(#SVGID_22_);}
</style><g
     id="g164"
     transform="translate(-117.7,-70.4)"><linearGradient
       id="SVGID_21_"
       gradientUnits="userSpaceOnUse"
       x1="133.49631"
       y1="89.8396"
       x2="176.1364"
       y2="89.8396"><stop
         offset="0"
         style="stop-color:#FFFFFF"
         id="stop150" /><stop
         offset="1"
         style="stop-color:#4F4F4F"
         id="stop152" /></linearGradient><path
       class="st21"
       d="m 175.2,86.4 c -0.7,-1.8 -1.8,-3.3 -3.2,-4.4 -1.4,-1.1 -3.5,-1.7 -6.3,-1.9 h -6.6 l 2.2,-9.7 h -9.1 l -6.9,28 h 9.1 l 2.8,-10.1 h 1.5 4.4 c 3.9,0.1 5.3,2.3 4,6.8 -0.5,1.6 -1.4,3 -2.8,4.1 -1.4,1.2 -3.3,1.8 -5.6,1.9 v 0 h -4.6 -18 l -2.3,8 h 0.3 25.4 c 6.9,-0.4 11.9,-3.5 15,-9.3 1.9,-4.9 2.2,-9.4 0.7,-13.4 z"
       id="path155"
       inkscape:connector-curvature="0"
       style="fill:url(#SVGID_21_)" /><linearGradient
       id="SVGID_22_"
       gradientUnits="userSpaceOnUse"
       x1="117.7619"
       y1="89.8396"
       x2="147.56371"
       y2="89.8396"><stop
         offset="0"
         style="stop-color:#FFFFFF"
         id="stop157" /><stop
         offset="1"
         style="stop-color:#4F4F4F"
         id="stop159" /></linearGradient><path
       class="st22"
       d="m 130.6,94.9 h 6.4 l 1.9,-8.3 h -6.3 l 1.5,-5.6 c 0.1,-0.6 0.4,-1.1 0.9,-1.5 0.5,-0.4 1,-0.6 1.6,-0.6 h 8.9 l 2,-8.3 h -12.8 c -4.8,0.7 -7.9,3.4 -9.3,8.1 l -7.7,30.6 h 8.4 0.6 z"
       id="path162"
       inkscape:connector-curvature="0"
       style="fill:url(#SVGID_22_)" /></g></svg>