<?xml version="1.0" encoding="UTF-8" standalone="no"?>
<svg
   xmlns:dc="http://purl.org/dc/elements/1.1/"
   xmlns:cc="http://creativecommons.org/ns#"
   xmlns:rdf="http://www.w3.org/1999/02/22-rdf-syntax-ns#"
   xmlns:svg="http://www.w3.org/2000/svg"
   xmlns="http://www.w3.org/2000/svg"
   xmlns:sodipodi="http://sodipodi.sourceforge.net/DTD/sodipodi-0.dtd"
   xmlns:inkscape="http://www.inkscape.org/namespaces/inkscape"
   version="1.0"
   width="155.99084"
   height="197.10498"
   viewBox="0 0 1559.9084 1971.0498"
   preserveAspectRatio="xMidYMid meet"
   id="svg10"
   sodipodi:docname="Monogram-FB-Logo-by-Greenlines-Studios-580x387.svg"
   inkscape:version="0.92.2 (5c3e80d, 2017-08-06)">
  <metadata
     id="metadata16">
    <rdf:RDF>
      <cc:Work
         rdf:about="">
        <dc:format>image/svg+xml</dc:format>
        <dc:type
           rdf:resource="http://purl.org/dc/dcmitype/StillImage" />
      </cc:Work>
    </rdf:RDF>
  </metadata>
  <defs
     id="defs14" />
  <sodipodi:namedview
     pagecolor="#ffffff"
     bordercolor="#666666"
     borderopacity="1"
     objecttolerance="10"
     gridtolerance="10"
     guidetolerance="10"
     inkscape:pageopacity="0"
     inkscape:pageshadow="2"
     inkscape:window-width="1920"
     inkscape:window-height="1017"
     id="namedview12"
     showgrid="false"
     inkscape:zoom="0.60981912"
     inkscape:cx="-133.85"
     inkscape:cy="3.5599706"
     inkscape:window-x="-8"
     inkscape:window-y="-8"
     inkscape:window-maximized="1"
     inkscape:current-layer="svg10" />
  <g
     id="layer102"
     style="fill:#fefefe;stroke:none"
     transform="translate(-2119.25,-949.25)">
    <path
       d="m 2602,2908 c -9,-9 -12,-100 -12,-347 v -335 l 158,-275 157,-275 5,140 5,139 155,3 c 174,3 221,-7 255,-52 17,-24 20,-42 20,-144 0,-122 -11,-158 -53,-178 -9,-5 -86,-11 -169,-14 l -153,-5 161,-280 c 89,-154 166,-284 172,-290 6,-7 8,-7 4,0 -9,17 -127,295 -127,300 0,3 26,5 58,5 173,0 316,71 376,187 30,59 46,150 46,267 0,175 -32,248 -133,306 -42,24 -48,30 -32,35 90,28 155,90 176,169 7,24 10,107 7,211 -3,166 -4,171 -34,235 -53,109 -141,177 -263,200 -80,15 -764,13 -779,-2 z m 708,-276 c 52,-26 60,-50 60,-197 0,-209 -8,-215 -277,-215 h -183 v 208 c 0,115 3,212 7,215 3,4 85,7 182,7 148,0 182,-3 211,-18 z"
       id="path5"
       inkscape:connector-curvature="0" />
    <path
       d="m 2158,2835 c 11,-27 41,-97 66,-154 25,-57 46,-105 46,-107 0,-2 -28,-4 -63,-4 -36,0 -68,-5 -75,-12 -17,-17 -17,-1579 0,-1596 17,-17 859,-17 876,0 17,17 17,244 0,255 -7,4 -137,10 -288,13 l -275,5 -3,216 -2,217 26,6 c 15,4 97,7 183,6 86,-1 164,-1 173,-1 13,1 -1,32 -61,134 l -77,132 -120,5 -119,5 -5,215 -5,215 -142,243 c -77,134 -144,246 -148,250 -4,4 2,-15 13,-43 z"
       id="path7"
       inkscape:connector-curvature="0" />
  </g>
</svg>
